<?xml version="1.0" encoding="utf-8"?>
<!-- Generator: Adobe Illustrator 22.0.1, SVG Export Plug-In . SVG Version: 6.00 Build 0)  -->
<svg version="1.1" id="Layer_1" xmlns="http://www.w3.org/2000/svg" xmlns:xlink="http://www.w3.org/1999/xlink" x="0px" y="0px"
	 viewBox="0 0 330 450" style="enable-background:new 0 0 330 450;" xml:space="preserve">
<style type="text/css">
	.st0{fill:#0D9249;}
</style>
<g>
	<path class="st0" d="M326.7,225.1c-23.8-9.9-31.3-36.5-34.3-59.8c-2.5-20-3.7-39.7-10.7-58.8c-11.7-31.9-34.8-59.8-67.3-71.5
		C154.3,13.3,70.8,36.3,40.2,95.1c-17,32.7-15.3,70.9-8.8,106.1c-4,0.2-8.1,1.2-11.8,3.1c-16.1,8.2-19,29.3-17.9,45.4
		c1.1,16.6,7.5,32.3,22.6,40.9c9.8,5.6,22.8,7.6,31.4,0.6c4,12.2,9.5,22.6,18.3,32.3c-12.8,19.9-26,39.5-38.8,59.5
		c-0.7,0.5-1.1,1.4-1.1,2.5c0,19.6,0,39.3,0,58.9c0,1.4,0.7,2.4,1.7,2.9c0.5,1,1.5,1.7,2.9,1.7c20.4,0,40.8,0,61.2,0
		c0.3,0,0.6,0,0.9-0.1c1.2,0.1,2.4-0.3,3.2-1.6c15.9-25.8,32.4-51.3,48.4-77c32.4,10.3,64.9,8.2,98.5,8.7c1.4,0,3-1.1,3.3-2.5
		c5.3-23.9,15.5-45.8,30.3-65.4c1.3-1.7,0-4.6-2-5c-25.1-4.9-47.6-16.1-66.4-33.1c24.4-0.2,48.7-0.4,73.1-0.6c1.9,0,3.4-1.5,3.4-3.4
		c0.4-18.8,14.4-34.9,33.3-37.2C329.6,231.3,330.3,226.6,326.7,225.1z M247.9,164.8c-4.5,15.2-24.1,11.6-36.5,11.5
		c-23.5-0.1-46.9-0.1-70.4-0.2c-19.2-0.1-42.3,3.1-61-2.5c-8.4-2.5-12.9-8.5-12.9-17.2c-0.1-12.1,1.8-26.1,6.5-37
		C87.5,87,116.8,68,151.5,66.1c0,0,0,0,0,0C191,59.5,227.8,81.3,243,118C248.8,132,252.3,149.9,247.9,164.8z"/>
</g>
</svg>
