<?xml version="1.0" encoding="utf-8"?>
<!-- Generator: Adobe Illustrator 22.0.1, SVG Export Plug-In . SVG Version: 6.00 Build 0)  -->
<svg version="1.1" id="Layer_1" xmlns="http://www.w3.org/2000/svg" xmlns:xlink="http://www.w3.org/1999/xlink" x="0px" y="0px"
	 viewBox="0 0 1000 1000" style="enable-background:new 0 0 1000 1000;" xml:space="preserve">
<style type="text/css">
	.st0{fill:#FFF86C;}
	.st1{fill:#F76F49;}
	.st2{fill:#0D9249;}
	.st3{clip-path:url(#SVGID_2_);}
	.st4{fill:#050912;}
</style>
<rect x="2" y="2" class="st0" width="998" height="998"/>
<g>
	<path class="st1" d="M824.9,502c-47.2-19.6-62.1-72.4-68-118.6c-5-39.6-7.3-78.8-21.1-116.6c-23.1-63.2-69-118.5-133.5-141.7
		c-119.2-43-284.8,2.6-345.4,119.2c-33.7,64.8-30.4,140.6-17.4,210.5c-8,0.3-16.1,2.4-23.4,6.2c-32,16.3-37.6,58-35.6,90.1
		c2.1,33,14.9,64.1,44.8,81.1c19.5,11.1,45.2,15.1,62.3,1.1c7.9,24.2,18.7,44.9,36.3,64c-25.4,39.5-51.6,78.4-76.9,117.9
		c-1.3,1.1-2.2,2.7-2.2,5c0,39,0,77.9,0,116.9c0,2.8,1.4,4.7,3.3,5.7c1,1.9,2.9,3.3,5.7,3.3c40.5,0,80.9,0,121.4,0
		c0.6,0,1.2-0.1,1.8-0.2c2.3,0.3,4.7-0.6,6.3-3.1c31.6-51.2,64.3-101.6,96-152.8c64.2,20.5,128.7,16.3,195.3,17.2
		c2.8,0,5.9-2.1,6.5-5c10.5-47.5,30.7-90.9,60-129.6c2.5-3.3-0.1-9.1-4-9.9c-49.7-9.7-94.5-32-131.7-65.7c48.3-0.4,96.7-0.8,145-1.2
		c3.7,0,6.7-3.1,6.7-6.7c0.8-37.4,28.6-69.2,66-73.7C830.9,514.4,832.1,505,824.9,502z M668.8,382.5c-9,30.2-47.7,23-72.3,22.9
		c-46.6-0.1-93.1-0.3-139.7-0.4c-38.1-0.1-83.8,6.1-120.9-5c-16.7-5-25.5-16.8-25.7-34.1c-0.2-23.9,3.7-51.7,13-73.5
		c27.4-64.2,85.6-102,154.4-105.6c0,0,0,0,0.1,0c78.4-13.1,151.4,30.1,181.5,103C670.5,317.4,677.6,352.9,668.8,382.5z"/>
</g>
<g>
	<path class="st2" d="M789,461.6c-47.2-19.6-62.1-72.4-68-118.6c-5-39.6-7.3-78.8-21.1-116.6c-23.1-63.2-69-118.5-133.5-141.7
		c-119.2-43-284.8,2.6-345.4,119.2c-33.7,64.8-30.4,140.6-17.4,210.5c-8,0.3-16.1,2.4-23.4,6.2c-32,16.3-37.6,58-35.6,90.1
		c2.1,33,14.9,64.1,44.8,81.1c19.5,11.1,45.2,15.1,62.3,1.1c7.9,24.2,18.7,44.9,36.3,64c-25.4,39.5-51.6,78.4-76.9,117.9
		c-1.3,1.1-2.2,2.7-2.2,5c0,39,0,77.9,0,116.9c0,2.8,1.4,4.7,3.3,5.7c1,1.9,2.9,3.3,5.7,3.3c40.5,0,80.9,0,121.4,0
		c0.6,0,1.2-0.1,1.8-0.2c2.3,0.3,4.7-0.6,6.3-3.1c31.6-51.2,64.3-101.6,96-152.8c64.2,20.5,128.7,16.3,195.3,17.2
		c2.8,0,5.9-2.1,6.5-5c10.5-47.5,30.7-90.9,60-129.6c2.5-3.3-0.1-9.1-4-9.9c-49.7-9.7-94.5-32-131.7-65.7c48.3-0.4,96.7-0.8,145-1.2
		c3.7,0,6.7-3.1,6.7-6.7c0.8-37.4,28.6-69.2,66-73.7C794.9,473.9,796.2,464.6,789,461.6z M632.8,342c-9,30.2-47.7,23-72.3,22.9
		c-46.6-0.1-93.1-0.3-139.7-0.4c-38.1-0.1-83.8,6.1-120.9-5c-16.7-5-25.5-16.8-25.7-34.1c-0.2-23.9,3.7-51.7,13-73.5
		c27.4-64.2,85.6-102,154.4-105.6c0,0,0,0,0.1,0c78.4-13.1,151.4,30.1,181.5,103C634.6,277,641.6,312.4,632.8,342z"/>
</g>
<g>
	<defs>
		<path id="SVGID_1_" d="M824.9,502c-47.2-19.6-62.1-72.4-68-118.6c-5-39.6-7.3-78.8-21.1-116.6c-23.1-63.2-69-118.5-133.5-141.7
			c-119.2-43-284.8,2.6-345.4,119.2c-33.7,64.8-30.4,140.6-17.4,210.5c-8,0.3-16.1,2.4-23.4,6.2c-32,16.3-37.6,58-35.6,90.1
			c2.1,33,14.9,64.1,44.8,81.1c19.5,11.1,45.2,15.1,62.3,1.1c7.9,24.2,18.7,44.9,36.3,64c-25.4,39.5-51.6,78.4-76.9,117.9
			c-1.3,1.1-2.2,2.7-2.2,5c0,39,0,77.9,0,116.9c0,2.8,1.4,4.7,3.3,5.7c1,1.9,2.9,3.3,5.7,3.3c40.5,0,80.9,0,121.4,0
			c0.6,0,1.2-0.1,1.8-0.2c2.3,0.3,4.7-0.6,6.3-3.1c31.6-51.2,64.3-101.6,96-152.8c64.2,20.5,128.7,16.3,195.3,17.2
			c2.8,0,5.9-2.1,6.5-5c10.5-47.5,30.7-90.9,60-129.6c2.5-3.3-0.1-9.1-4-9.9c-49.7-9.7-94.5-32-131.7-65.7
			c48.3-0.4,96.7-0.8,145-1.2c3.7,0,6.7-3.1,6.7-6.7c0.8-37.4,28.6-69.2,66-73.7C830.9,514.4,832.1,505,824.9,502z M668.8,382.5
			c-9,30.2-47.7,23-72.3,22.9c-46.6-0.1-93.1-0.3-139.7-0.4c-38.1-0.1-83.8,6.1-120.9-5c-16.7-5-25.5-16.8-25.7-34.1
			c-0.2-23.9,3.7-51.7,13-73.5c27.4-64.2,85.6-102,154.4-105.6c0,0,0,0,0.1,0c78.4-13.1,151.4,30.1,181.5,103
			C670.5,317.4,677.6,352.9,668.8,382.5z"/>
	</defs>
	<clipPath id="SVGID_2_">
		<use xlink:href="#SVGID_1_"  style="overflow:visible;"/>
	</clipPath>
	<g class="st3">
		<path class="st4" d="M789,461.6c-47.2-19.6-62.1-72.4-68-118.6c-5-39.6-7.3-78.8-21.1-116.6c-23.1-63.2-69-118.5-133.5-141.7
			c-119.2-43-284.8,2.6-345.4,119.2c-33.7,64.8-30.4,140.6-17.4,210.5c-8,0.3-16.1,2.4-23.4,6.2c-32,16.3-37.6,58-35.6,90.1
			c2.1,33,14.9,64.1,44.8,81.1c19.5,11.1,45.2,15.1,62.3,1.1c7.9,24.2,18.7,44.9,36.3,64c-25.4,39.5-51.6,78.4-76.9,117.9
			c-1.3,1.1-2.2,2.7-2.2,5c0,39,0,77.9,0,116.9c0,2.8,1.4,4.7,3.3,5.7c1,1.9,2.9,3.3,5.7,3.3c40.5,0,80.9,0,121.4,0
			c0.6,0,1.2-0.1,1.8-0.2c2.3,0.3,4.7-0.6,6.3-3.1c31.6-51.2,64.3-101.6,96-152.8c64.2,20.5,128.7,16.3,195.3,17.2
			c2.8,0,5.9-2.1,6.5-5c10.5-47.5,30.7-90.9,60-129.6c2.5-3.3-0.1-9.1-4-9.9c-49.7-9.7-94.5-32-131.7-65.7
			c48.3-0.4,96.7-0.8,145-1.2c3.7,0,6.7-3.1,6.7-6.7c0.8-37.4,28.6-69.2,66-73.7C794.9,473.9,796.2,464.6,789,461.6z M632.8,342
			c-9,30.2-47.7,23-72.3,22.9c-46.6-0.1-93.1-0.3-139.7-0.4c-38.1-0.1-83.8,6.1-120.9-5c-16.7-5-25.5-16.8-25.7-34.1
			c-0.2-23.9,3.7-51.7,13-73.5c27.4-64.2,85.6-102,154.4-105.6c0,0,0,0,0.1,0c78.4-13.1,151.4,30.1,181.5,103
			C634.6,277,641.6,312.4,632.8,342z"/>
	</g>
</g>
</svg>
